<?xml version="1.0" encoding="UTF-8" standalone="no"?>
<!-- Generator: Adobe Illustrator 22.1.0, SVG Export Plug-In . SVG Version: 6.00 Build 0)  -->

<svg
   xmlns:dc="http://purl.org/dc/elements/1.1/"
   xmlns:cc="http://creativecommons.org/ns#"
   xmlns:rdf="http://www.w3.org/1999/02/22-rdf-syntax-ns#"
   xmlns:svg="http://www.w3.org/2000/svg"
   xmlns="http://www.w3.org/2000/svg"
   xmlns:sodipodi="http://sodipodi.sourceforge.net/DTD/sodipodi-0.dtd"
   xmlns:inkscape="http://www.inkscape.org/namespaces/inkscape"
   version="1.0"
   id="Layer_1"
   x="0px"
   y="0px"
   viewBox="0 0 16 21"
   style="enable-background:new 0 0 16 21;"
   xml:space="preserve"
   inkscape:version="0.91 r13725"
   sodipodi:docname="admin.svg"><metadata
     id="metadata21"><rdf:RDF><cc:Work
         rdf:about=""><dc:format>image/svg+xml</dc:format><dc:type
           rdf:resource="http://purl.org/dc/dcmitype/StillImage" /></cc:Work></rdf:RDF></metadata><defs
     id="defs19" /><sodipodi:namedview
     pagecolor="#ffffff"
     bordercolor="#666666"
     borderopacity="1"
     objecttolerance="10"
     gridtolerance="10"
     guidetolerance="10"
     inkscape:pageopacity="0"
     inkscape:pageshadow="2"
     inkscape:window-width="1690"
     inkscape:window-height="757"
     id="namedview17"
     showgrid="false"
     inkscape:zoom="11.238095"
     inkscape:cx="8"
     inkscape:cy="8.3498136"
     inkscape:window-x="0"
     inkscape:window-y="0"
     inkscape:window-maximized="0"
     inkscape:current-layer="Layer_1" /><style
     type="text/css"
     id="style3">
	.st0{fill:none;stroke:#2EA7DF;stroke-width:2;stroke-miterlimit:10;}
	.st1{fill:none;stroke:#2EA7DF;stroke-width:2;stroke-linecap:round;stroke-miterlimit:10;}
	.st2{fill:none;stroke:#2EA7DF;stroke-width:2;stroke-linecap:round;stroke-linejoin:round;stroke-miterlimit:10;}
</style><g
     id="g3362"><g
       id="g3365"><path
         id="polygon15"
         style="color:#000000;font-style:normal;font-variant:normal;font-weight:normal;font-stretch:normal;font-size:medium;line-height:normal;font-family:sans-serif;text-indent:0;text-align:start;text-decoration:none;text-decoration-line:none;text-decoration-style:solid;text-decoration-color:#000000;letter-spacing:normal;word-spacing:normal;text-transform:none;direction:ltr;block-progression:tb;writing-mode:lr-tb;baseline-shift:baseline;text-anchor:start;white-space:normal;clip-rule:nonzero;display:inline;overflow:visible;visibility:visible;opacity:1;isolation:auto;mix-blend-mode:normal;color-interpolation:sRGB;color-interpolation-filters:linearRGB;solid-color:#000000;solid-opacity:1;fill:#2ea7df;fill-opacity:1;fill-rule:nonzero;stroke:none;stroke-width:2;stroke-linecap:round;stroke-linejoin:round;stroke-miterlimit:10;stroke-dasharray:none;stroke-dashoffset:0;stroke-opacity:1;color-rendering:auto;image-rendering:auto;shape-rendering:auto;text-rendering:auto;enable-background:accumulate"
         d="M 5,9 A 1.0001,1.0001 0 0 0 4.0507812,9.6835938 l -1,3.0000002 A 1.0001,1.0001 0 0 0 4,14 l 8,0 a 1.0001,1.0001 0 0 0 0.949219,-1.316406 l -1,-3.0000002 A 1.0001,1.0001 0 0 0 11,9 L 5,9 Z m 0.7207031,2 4.5585939,0 0.333984,1 -5.2265622,0 0.3339843,-1 z M 1,0 A 1.0001,1.0001 0 0 0 0,1 l 0,9 a 1.0001,1.0001 0 0 0 1,1 l 14,0 a 1.0001,1.0001 0 0 0 1,-1 L 16,1 A 1.0001,1.0001 0 0 0 15,0 L 1,0 Z M 2,2 14,2 14,9 2,9 2,2 Z m 5,11 0,3 2,0 0,-3 -2,0 z m -6,4 a 1.0001,1.0001 0 1 0 0,2 l 5,0 a 1.0001,1.0001 0 1 0 0,-2 l -5,0 z m 9,0 a 1.0001,1.0001 0 1 0 0,2 l 5,0 a 1.0001,1.0001 0 1 0 0,-2 l -5,0 z M 8,15 c -1.6450096,0 -3,1.35499 -3,3 0,1.64501 1.3549904,3 3,3 1.6450096,0 3,-1.35499 3,-3 0,-1.64501 -1.3549904,-3 -3,-3 z m 0,2 c 0.5641294,0 1,0.435871 1,1 0,0.564129 -0.4358706,1 -1,1 -0.5641294,0 -1,-0.435871 -1,-1 0,-0.564129 0.4358706,-1 1,-1 z" /></g></g></svg>