<?xml version="1.0" encoding="utf-8"?>
<!-- Generator: Adobe Illustrator 22.1.0, SVG Export Plug-In . SVG Version: 6.00 Build 0)  -->
<svg version="1.0" id="Layer_1" xmlns="http://www.w3.org/2000/svg" xmlns:xlink="http://www.w3.org/1999/xlink" x="0px" y="0px"
	 viewBox="0 0 44 35" style="enable-background:new 0 0 44 35;" xml:space="preserve">
<style type="text/css">
	.st0{fill:#DDDDDD;}
</style>
<g>
	<path class="st0" d="M25.8,14.6c-0.2-2.6-0.6-5.3-1.6-7.8c-1.2-3.3-3.5-5.6-7.1-6.4c-2.6-0.6-5.3-0.7-7.9-0.1c-4.9,1-8,4.2-8.7,9.1
		C0,13.6-0.2,17.9,0.2,22.1c0.2,1.9,0.5,3.9,1.2,5.7c1.5,3.9,4.2,6.5,8.5,7c1.4,0.2,2.9,0.1,4.4,0.1c5,0,8.4-2.3,10.2-6.9
		c1.2-3.1,1.6-6.4,1.6-9.8C25.9,17.1,25.9,15.9,25.8,14.6z M20.9,23.6c-3.1,3.1-6.1,6.1-9.2,9.1V20.8c-1.8,1.8-3.4,3.4-5,5
		c-0.7-0.7-1.3-1.3-1.9-2c2-2,4.1-4.1,6.3-6.2c-2.1-2.1-4.2-4.2-6.3-6.2c0.7-0.6,1.3-1.2,2-1.9c1.5,1.5,3.1,3.1,4.9,4.9V2.5
		c0.1,0,0.1-0.1,0.2-0.1c3,3,6,5.9,9,8.9c-2.1,2.1-4.1,4.1-6.2,6.2C16.9,19.6,19,21.6,20.9,23.6z"/>
	<path class="st0" d="M17.2,11.4c-1,1-1.9,1.9-2.8,2.8V8.8C15.2,9.6,16.2,10.5,17.2,11.4z"/>
	<path class="st0" d="M17.2,23.6c-0.9,0.9-1.9,1.9-2.8,2.8v-5.4C15.3,21.8,16.2,22.7,17.2,23.6z"/>
</g>
<g>
	<path class="st0" d="M30,22h1.4v9.8h4.7V33H30V22z"/>
	<path class="st0" d="M43.5,27.8h-4.3v4H44V33h-6.2V22h6v1.2h-4.6v3.5h4.3V27.8z"/>
</g>
</svg>
