<?xml version="1.0" encoding="UTF-8" standalone="no"?>
<svg
   xmlns:dc="http://purl.org/dc/elements/1.1/"
   xmlns:cc="http://creativecommons.org/ns#"
   xmlns:rdf="http://www.w3.org/1999/02/22-rdf-syntax-ns#"
   xmlns:svg="http://www.w3.org/2000/svg"
   xmlns="http://www.w3.org/2000/svg"
   viewBox="0 0 1999.6737 2389.7871"
   height="2389.7871"
   width="1999.6737"
   version="1.1"
   id="svg2">
  <metadata
     id="metadata8">
    <rdf:RDF>
      <cc:Work
         rdf:about="">
        <dc:format>image/svg+xml</dc:format>
        <dc:type
           rdf:resource="http://purl.org/dc/dcmitype/StillImage" />
        <dc:title></dc:title>
      </cc:Work>
    </rdf:RDF>
  </metadata>
  <defs
     id="defs6" />
  <path
     id="path3338"
     d="m 1142.6737,1961.2872 0,-428.5 -47.5,0 -47.5,0 0,-190.5 0,-190.5 476,0 476.0001,0 0,190.5 0,190.5 -47.5001,0 -47.5,0 0,428.5 0,428.5 -381,0 -381,0 0,-428.5 z m 571,-191.0026 0,-428.5026 -190.25,0.2526 -190.25,0.2526 -0.2512,428.25 -0.2511,428.25 190.5011,0 190.5012,0 0,-428.5026 z m -255,-735.5705 c -79.8912,-7.959 -154.0812,-47.98869 -204.0303,-110.08579 -22.1561,-27.5447 -43.8693,-68.0173 -52.9323,-98.6641 -2.1111,-7.1387 -2.2206,-7.2874 -4.3515,-5.9065 -6.6678,4.3211 -19.9891,11.495 -31.7827,17.1159 -34.3267,16.3602 -73.5733,27.5715 -112.9032,32.2523 -17.5654,2.0905 -57.19358,2.3714 -73.49998,0.5211 -76.1467,-8.6409 -138.3822,-37.284 -193.5342,-89.0721 -67.1852,-63.0873 -109.6518,-151.1187 -117.035,-242.6081 -1.4922,-18.4908 -0.6674,-57.4951 1.5525,-73.4238 6.556,-47.0397 21.1469,-90.6368 43.6207,-130.3368 7.9712,-14.081 26.7212,-41.9371 36.4951,-54.219 10.5485,-13.2554 30.2323,-33.6103 43.9009,-45.3977 49.3983,-42.5999 109.7174,-68.6612 180,-77.7704 19.2155,-2.4905 68.10978,-2.4921 86.80028,0 l 12.8004,1.7048 2.6996,-3.2665 c 19.312,-23.3666 49.5952,-51.3376 78.061,-72.100901 43.5821,-31.7892 98.7645,-57.7985 149.6387,-70.5298 76.6482,-19.1812002 152.9131,-16.9980002 224.5956,6.4295 73.5293,24.0311 139.3563,70.6178 190.5961,134.887501 50.5293,63.3784 81.6537,138.3419 91.9849,221.5464 2.5859,20.8266 2.5811,76.5253 -0.01,96.5 -6.0732,46.847 -18.0466,89.1661 -35.8346,126.6542 l -5.0554,10.6543 5.5259,13.3457 c 24.0336,58.0445 28.9504,118.2317 14.3244,175.3458 -9.5448,37.2724 -28.0419,72.9819 -52.2686,100.907 -3.7729,4.3489 -9.5773,11.406 -12.8987,15.6825 -49.9281,64.2844 -121.5491,106.52849 -199.9611,117.94259 -16.2853,2.3706 -51.6185,3.3773 -66.5,1.8948 z m 51.2903,-192.83399 c 26.4626,-7.2745 48.7556,-23.0368 67.1952,-47.5106 4.5925,-6.0952 10.2053,-12.879 12.4728,-15.0749 5.8232,-5.6392 11.7655,-15.1603 14.7919,-23.7006 2.0736,-5.8514 2.6783,-9.7213 3.036,-19.429 0.6984,-18.9524 -3.3013,-34.5841 -13.1459,-51.3778 -2.7032,-4.6112 -16.384,-21.4979 -35.5185,-43.8418 -17.117,-19.9879 -31.1218,-36.6291 -31.1218,-36.9803 0,-0.3513 14.8116,-15.4975 32.9148,-33.6583 l 32.9147,-33.0196 7.0195,-14.5 c 10.9341,-22.5863 17.0372,-42.2552 20.7896,-67 2.3857,-15.7324 2.3933,-47.1092 0.015,-63.5 -7.9919,-55.0871 -32.9048,-104.376 -71.7827,-142.018 -31.202,-30.2101 -64.6396,-48.1991 -104.1951,-56.0557 -23.8081,-4.7289 -56.8925,-4.4772 -81.6762,0.6214 -49.7368,10.232 -94.0478,34.6208 -130.0612,71.5856 -14.4998,14.8829 -22.1306,24.4962 -30.1413,37.972 -8.9256,15.0149 -15.6301,22.8885 -41.0846,48.2486 l -22.4371,22.3539 -33.3879,-11.023 c -46.7067,-15.4203 -61.0907,-18.3691 -89.3879,-18.3253 -17.94718,0.028 -26.23908,0.9795 -41.49998,4.7629 -25.7568,6.3855 -47.019,18.3362 -65.5477,36.8422 -17.2049,17.1838 -36.3432,48.2082 -43.8203,71.0354 -17.0445,52.0366 -7.4827,108.6266 26.53,157.0126 8.6374,12.2876 31.9743,35.5407 42.9491,42.795 14.964,9.8912 31.7242,16.7727 49.7067,20.409 12.2479,2.4766 44.05708,2.4686 56.68218,-0.014 31.6902,-6.2325 61.0383,-20.9742 81.5,-40.9378 4.125,-4.0245 20.5325,-23.6297 36.461,-43.5669 15.9286,-19.9373 29.4529,-36.0608 30.0542,-35.8301 0.6012,0.2307 20.7514,13.4882 44.7781,29.461 30.1191,20.0229 47.4924,30.9029 55.9458,35.0359 8.762,4.2839 24.6325,10.1343 55.6136,20.5011 23.844,7.9787 43.5841,14.738 43.8669,15.0209 0.2828,0.2828 -2.0145,18.199 -5.1051,39.8139 -3.0907,21.6149 -5.6183,42.7579 -5.6169,46.9844 0,12.829 3.584,26.1102 11.0053,40.8285 14.585,28.9258 43.2093,50.8924 74.9971,57.5536 9.9145,2.0775 34.3264,1.2652 44.2903,-1.4738 z M 75.189316,959.12771 c -39.6258,-8.4899 -69.4019002,-41.2496 -74.55820024,-82.0288 -1.371,-10.8429 -0.4994,-22.8494 2.52800004,-34.8232 4.2718,-16.8954 11.3324002,-29.2674 24.4393002,-42.8235 12.1766,-12.594 26.7607,-21.1317 44.1422,-25.8413 12.141,-3.2898 34.659404,-3.2949 46.933104,-0.011 18.6744,4.997 38.5255,17.5681 49.8429,31.5641 44.3712,54.8731 17.8037,135.8612 -50.2296,153.1192 -8.1914,2.078 -12.1011,2.4898 -22.991504,2.4222 -7.5468,-0.047 -16.0892,-0.7173 -20.1062,-1.578 z m 332.830704,-94.4083 c -60.006,-9.2482 -106.0971,-52.8483 -119.5107,-113.0517 -3.0255,-13.579 -3.2792,-41.3405 -0.5047,-55.2198 3.7116,-18.5666 12.237,-38.8644 22.8852,-54.4869 7.0187,-10.2974 27.2886,-30.4275 37.2839,-37.0269 10.0707,-6.6491 25.6661,-14.3073 35.7918,-17.5758 27.9902,-9.0348 60.008,-9.1712 87.6186,-0.3731 75.8576,24.1721 117.1444,104.7102 92.5997,180.6343 -15.6293,48.3464 -55.634,84.1234 -107.0101,95.7013 -8.4116,1.8956 -40.082,2.7968 -49.1537,1.3986 z"
     style="fill:#000000" />
</svg>
