<?xml version="1.0" encoding="utf-8"?>
<!-- Generator: Adobe Illustrator 22.1.0, SVG Export Plug-In . SVG Version: 6.00 Build 0)  -->
<svg version="1.0" id="Layer_1" xmlns="http://www.w3.org/2000/svg" xmlns:xlink="http://www.w3.org/1999/xlink" x="0px" y="0px"
	 viewBox="0 0 21 25" style="enable-background:new 0 0 21 25;" xml:space="preserve">
<style type="text/css">
	.st0{fill:none;stroke:#2EA7DF;stroke-width:2;stroke-miterlimit:10;}
	.st1{fill:#2EA7DF;}
	.st2{fill:none;stroke:#2EA7DF;stroke-width:2;stroke-linecap:round;stroke-miterlimit:10;}
</style>
<g>
	<path class="st0" d="M9.2,7.6c1.1,0.8,2.7,0.5,3.5-0.5c0,0,0,0,0,0c0.3,0.2,0.5,0.3,0.8,0.4c-0.1,0.7,0.3,1.5,0.9,1.9
		c1,0.7,2.3,0.4,3-0.6C18.1,8.1,18,7,17.4,6.3c0,0,0,0,0.1-0.1c1-1.5,0.6-3.6-0.9-4.7s-3.6-0.6-4.7,0.9c-0.1,0.1-0.1,0.2-0.2,0.3
		c-1.2-0.4-2.5-0.1-3.2,1C7.6,5,8,6.7,9.2,7.6z"/>
	<circle class="st1" cx="4.5" cy="7.5" r="1.5"/>
	<circle class="st1" cx="1" cy="9" r="1"/>
	<path class="st2" d="M12,13v2h1v9h6v-9h1v-2H12z"/>
</g>
</svg>
