<?xml version="1.0" encoding="utf-8"?>
<!-- Generator: Adobe Illustrator 22.1.0, SVG Export Plug-In . SVG Version: 6.00 Build 0)  -->
<svg version="1.0" id="Capa_1" xmlns="http://www.w3.org/2000/svg" xmlns:xlink="http://www.w3.org/1999/xlink" x="0px" y="0px"
	 viewBox="0 0 9 16" style="enable-background:new 0 0 9 16;" xml:space="preserve">
<style type="text/css">
	.st0{fill:#3B5998;}
</style>
<g>
	<path class="st0" d="M8.7,0L6.5,0c-2.4,0-4,1.6-4,4v1.9H0.3C0.2,5.9,0,6.1,0,6.2V9c0,0.2,0.2,0.3,0.3,0.3h2.2v6.4
		c0,0.2,0.2,0.3,0.3,0.3h2.8C5.9,16,6,15.8,6,15.7V9.3h2.5c0.2,0,0.3-0.2,0.3-0.3l0-2.7c0-0.1,0-0.2-0.1-0.2S8.6,5.9,8.6,5.9H6V4.3
		c0-0.8,0.2-1.1,1.2-1.1l1.5,0C8.8,3.2,9,3,9,2.8V0.3C9,0.2,8.8,0,8.7,0z"/>
</g>
</svg>
