<?xml version="1.0" encoding="utf-8"?>
<!-- Generator: Adobe Illustrator 22.1.0, SVG Export Plug-In . SVG Version: 6.00 Build 0)  -->
<svg version="1.0" id="Layer_1" xmlns="http://www.w3.org/2000/svg" xmlns:xlink="http://www.w3.org/1999/xlink" x="0px" y="0px"
	 viewBox="0 0 21.5 27" style="enable-background:new 0 0 21.5 27;" xml:space="preserve">
<style type="text/css">
	.st0{fill:#2EA7DF;}
</style>
<path class="st0" d="M21.5,8.2c0,0.7,0.4,14.5-2.8,18.5C18.5,26.9,18.3,27,18,27c-0.2,0-0.4-0.1-0.5-0.2c-0.4-0.3-0.4-0.8-0.1-1.2
	c2.3-2.9,2.5-13.5,2.4-17.4l0,0l0,0V7c0-0.5-0.4-0.9-0.9-0.9S18,6.5,18,7v0.1v6c0,0.5-0.4,0.9-0.9,0.9c-0.5,0-0.9-0.4-0.9-0.9v-6V7
	V3.9c0-0.5-0.4-0.9-0.9-0.9s-0.9,0.4-0.9,0.9v2.5v6c0,0.5-0.4,0.9-0.9,0.9c-0.5,0-0.9-0.4-0.9-0.9v-6V3.9V2.7c0-0.5-0.4-0.9-0.9-0.9
	s-0.9,0.4-0.9,0.9v1.2v3.1v6.9c0,0.5-0.4,0.9-0.9,0.9c-0.5,0-0.9-0.4-0.9-0.9V6.9V3.9C9.1,3.4,8.7,3,8.2,3C7.7,3,7.3,3.4,7.3,3.9
	v14.3c0,0.4-0.2,0.7-0.7,0.8c-0.4,0.1-0.8-0.1-1-0.4l-2.6-4.5c-0.1-0.2-0.3-0.4-0.5-0.5c-0.2,0-0.4,0-0.6,0.1
	c-0.3,0.2-0.3,0.8-0.1,1.5c0.1,0.3,2.5,7,5.2,9.6c0.3,0.3,0.3,0.9,0,1.2c-0.2,0.2-0.4,0.2-0.6,0.2c-0.2,0-0.5-0.1-0.6-0.2
	c-3-3-5.4-10-5.6-10.3l0,0c-0.5-1.5-0.2-2.9,0.8-3.5c0.6-0.4,1.3-0.5,1.9-0.3c0.7,0.2,1.2,0.6,1.6,1.3l0.9,1.6V3.8
	c0-1.4,1.2-2.6,2.6-2.6c0.5,0,0.9,0.1,1.2,0.3C9.8,0.6,10.7,0,11.7,0s1.9,0.6,2.3,1.4c0.4-0.2,0.8-0.3,1.2-0.3
	c1.4,0,2.6,1.2,2.6,2.6v0.6c0.3-0.1,0.6-0.2,0.9-0.2c1.4,0,2.6,1.2,2.6,2.6L21.5,8.2L21.5,8.2z M12.3,26.5
	C12.3,26.5,12.3,26.5,12.3,26.5c0.5,0,0.9-0.3,0.9-0.8c0.5-4.9-3-8.4-3.1-8.5c-0.3-0.3-0.9-0.3-1.2,0s-0.3,0.9,0,1.2
	c0,0,3,3.1,2.6,7.1C11.5,26,11.8,26.4,12.3,26.5z"/>
</svg>
