<?xml version="1.0" encoding="utf-8"?>
<!-- Generator: Adobe Illustrator 22.1.0, SVG Export Plug-In . SVG Version: 6.00 Build 0)  -->
<svg version="1.0" id="Layer_1" xmlns="http://www.w3.org/2000/svg" xmlns:xlink="http://www.w3.org/1999/xlink" x="0px" y="0px"
	 viewBox="0 0 16 16" style="enable-background:new 0 0 16 16;" xml:space="preserve">
<style type="text/css">
	.st0{fill:#505FD1;}
</style>
<g>
	<path class="st0" d="M11.6,1C13.5,1,15,2.5,15,4.4v7.2c0,1.9-1.5,3.4-3.4,3.4H4.4C2.5,15,1,13.5,1,11.6V4.4C1,2.5,2.5,1,4.4,1H11.6
		 M11.6,0H4.4C2,0,0,2,0,4.4v7.2C0,14,2,16,4.4,16h7.2c2.4,0,4.4-2,4.4-4.4V4.4C16,2,14,0,11.6,0L11.6,0z"/>
	<path class="st0" d="M8,6c1.1,0,2,0.9,2,2s-0.9,2-2,2S6,9.1,6,8S6.9,6,8,6 M8,5C6.3,5,5,6.3,5,8c0,1.7,1.3,3,3,3c1.7,0,3-1.3,3-3
		C11,6.3,9.7,5,8,5L8,5z"/>
	<path class="st0" d="M12.3,2.8c-0.5,0-0.9,0.4-0.9,0.9c0,0.5,0.4,0.9,0.9,0.9c0.5,0,0.9-0.4,0.9-0.9C13.2,3.2,12.8,2.8,12.3,2.8
		L12.3,2.8z"/>
</g>
</svg>
