<?xml version="1.0" encoding="utf-8"?>
<!-- Generator: Adobe Illustrator 22.1.0, SVG Export Plug-In . SVG Version: 6.00 Build 0)  -->
<svg version="1.0" id="Layer_1" xmlns="http://www.w3.org/2000/svg" xmlns:xlink="http://www.w3.org/1999/xlink" x="0px" y="0px"
	 viewBox="0 0 64 63.3" style="enable-background:new 0 0 64 63.3;" xml:space="preserve">
<style type="text/css">
	.st0{fill:#2EA7DF;}
</style>
<g>
	<g>
		<path class="st0" d="M34,34.5c0.7-0.7,1.1-1.7,1.1-2.7c0-2.1-1.7-3.8-3.8-3.8s-3.8,1.7-3.8,3.8c0,1,0.4,2,1.1,2.7l-1.4,5.9
			c-0.1,0.3,0,0.6,0.2,0.9s0.5,0.4,0.8,0.4h6.3c0.3,0,0.6-0.1,0.8-0.4s0.3-0.6,0.2-0.9L34,34.5z M29.5,39.7l1.3-5.3
			c0.1-0.4-0.1-0.8-0.4-1.1c-0.5-0.3-0.8-0.9-0.8-1.5c0-1,0.8-1.8,1.8-1.8c1,0,1.8,0.8,1.8,1.8c0,0.6-0.3,1.2-0.8,1.5
			C32,33.5,31.9,34,32,34.4l1.3,5.3H29.5z"/>
		<path class="st0" d="M55.2,35.8c0.6,1.9,2.3,3.2,4.3,3.2c2.5,0,4.5-2,4.5-4.5S62,30,59.5,30c-2.2,0-4.1,1.6-4.4,3.8H42.4v-4.3h7.8
			c0.3,0,0.5-0.1,0.7-0.3l4.2-4.2c0.6,0.3,1.2,0.4,1.8,0.4c2.5,0,4.5-2,4.5-4.5s-2-4.5-4.5-4.5s-4.5,2-4.5,4.5
			c0,1.1,0.4,2.1,1.1,2.9l-3.7,3.7h-7.5c-0.3-1.4-1.2-2.5-2.4-3.1l6.9-6.1c0.1-0.1,0.2-0.2,0.3-0.3l2.2-5c0.3,0.1,0.6,0.1,0.9,0.1
			c2.5,0,4.5-2,4.5-4.5s-2-4.5-4.5-4.5s-4.5,2-4.5,4.5c0,1.5,0.7,2.8,1.8,3.6L45.4,17L39,22.6v-2.3c0-4.2-3.4-7.6-7.6-7.6
			s-7.6,3.4-7.6,7.6v1.3l-2.6-3.7v-9c2-0.5,3.5-2.2,3.5-4.4c0-2.5-2-4.5-4.5-4.5s-4.5,2-4.5,4.5c0,2.1,1.5,3.9,3.5,4.4v9.3
			c0,0.2,0.1,0.4,0.2,0.6l3.8,5.4c-1.4,0.6-2.4,1.8-2.7,3.3h-6.3l-3.7-3.7c0.7-0.8,1.1-1.8,1.1-2.9c0-2.5-2-4.5-4.5-4.5
			s-4.6,2-4.6,4.5s2,4.5,4.5,4.5c0.7,0,1.3-0.1,1.8-0.4l4.2,4.2c0.2,0.2,0.4,0.3,0.7,0.3h6.6v4.3H8.9C8.6,31.7,6.7,30,4.5,30
			C2,30,0,32,0,34.5S2,39,4.5,39c2,0,3.7-1.4,4.3-3.2h11.6v4.4h-6.6c-0.3,0-0.5,0.1-0.7,0.3L9.6,44c-0.8-0.6-1.7-0.9-2.7-0.9
			c-2.5,0-4.5,2-4.5,4.5s2,4.5,4.5,4.5s4.5-2,4.5-4.5c0-0.7-0.2-1.4-0.5-2.1l3.3-3.3h6.3c0.5,2.1,2.3,3.7,4.6,3.7h2.1v8.6l-1.7,1.1
			c-0.8-0.8-1.9-1.3-3.1-1.3c-2.5,0-4.5,2-4.5,4.5s2,4.5,4.5,4.5c1.7,0,3.2-0.9,4-2.4c0.6-1.2,0.7-2.5,0.2-3.7
			c1.8-1.3,2.6-1.4,2.6-2.3v-9.2h4.4v6.1c0,0.4,0.2,0.7,0.6,0.9l3.9,1.9c-0.7,2.9,1.5,5.5,4.4,5.5c2.5,0,4.5-2,4.5-4.5
			s-2-4.5-4.5-4.5c-1.4,0-2.7,0.7-3.5,1.7l-3.4-1.7v-5.5h2.1c2.3,0,4.1-1.6,4.6-3.7h7.5l3.3,3.3c-0.3,0.6-0.5,1.3-0.5,2.1
			c0,2.5,2,4.5,4.5,4.5s4.5-2,4.5-4.5s-2-4.5-4.5-4.5c-1,0-1.9,0.3-2.7,0.9l-3.5-3.5c-0.1,0.1-0.4,0-0.7,0h-7.8v-4.3h12.8V35.8z
			 M59.5,32c1.4,0,2.5,1.1,2.5,2.5S60.9,37,59.5,37S57,35.9,57,34.5C57,33.2,58.1,32,59.5,32z M57,18.4c1.4,0,2.5,1.1,2.5,2.5
			s-1.1,2.5-2.5,2.5s-2.5-1.1-2.5-2.5C54.5,19.5,55.6,18.4,57,18.4z M50.2,6c1.4,0,2.5,1.1,2.5,2.5S51.6,11,50.2,11
			s-2.5-1.1-2.5-2.5S48.8,6,50.2,6z M17.7,4.5c0-1.4,1.1-2.5,2.5-2.5s2.5,1.1,2.5,2.5S21.6,7,20.2,7S17.7,5.9,17.7,4.5z M4.5,20.9
			c0-1.4,1.1-2.5,2.5-2.5s2.5,1.1,2.5,2.5S8.4,23.4,7,23.4S4.5,22.3,4.5,20.9z M4.5,37C3.1,37,2,35.9,2,34.5S3.1,32,4.5,32
			S7,33.1,7,34.5S5.9,37,4.5,37z M6.9,50.1c-1.4,0-2.5-1.1-2.5-2.5s1.1-2.5,2.5-2.5s2.5,1.1,2.5,2.5C9.4,48.9,8.3,50.1,6.9,50.1z
			 M24.5,60.1c-0.4,0.8-1.3,1.3-2.2,1.3c-1.4,0-2.5-1.1-2.5-2.5s1.1-2.5,2.5-2.5C24.2,56.4,25.5,58.3,24.5,60.1z M42.4,53.4
			c1.4,0,2.5,1.1,2.5,2.5s-1.1,2.5-2.5,2.5s-2.5-1.1-2.5-2.5S41,53.4,42.4,53.4z M31.4,14.7c3.1,0,5.6,2.5,5.6,5.6v3.5H25.8v-3.5
			C25.8,17.2,28.3,14.7,31.4,14.7z M40.4,41.2c0,1.5-1.2,2.7-2.7,2.7H25.1c-1.5,0-2.7-1.2-2.7-2.7V28.5c0-1.5,1.2-2.7,2.7-2.7h12.6
			c1.5,0,2.7,1.2,2.7,2.7V41.2z M57.1,45.1c1.4,0,2.5,1.1,2.5,2.5s-1.1,2.5-2.5,2.5s-2.5-1.1-2.5-2.5S55.7,45.1,57.1,45.1z"/>
	</g>
</g>
</svg>
