<?xml version="1.0" encoding="utf-8"?>
<!-- Generator: Adobe Illustrator 22.1.0, SVG Export Plug-In . SVG Version: 6.00 Build 0)  -->
<svg version="1.0" id="Layer_1" xmlns="http://www.w3.org/2000/svg" xmlns:xlink="http://www.w3.org/1999/xlink" x="0px" y="0px"
	 viewBox="0 0 25 16" style="enable-background:new 0 0 25 16;" xml:space="preserve">
<style type="text/css">
	.st0{fill:#2EA7DF;}
	.st1{fill:none;stroke:#2EA7DF;stroke-width:2;stroke-linecap:round;stroke-miterlimit:10;}
</style>
<g>
	<path class="st0" d="M24.1,4.9C23.6,4.3,22.8,4,22,4h-1.2l-2,2H22c0.3,0,0.5,0.1,0.7,0.3C22.9,6.5,23,6.7,23,7c0,0.5-0.5,1-1,1
		h-5.2l-2,2H22c1.7,0,3-1.3,3-3C25,6.2,24.7,5.4,24.1,4.9z M13.3,4C12.2,1.6,9.7,0,7,0C3.1,0,0,3.1,0,7c0,3.3,2.3,6.1,5.4,6.8
		c0.1-0.1,0.1-0.2,0.2-0.2L7.2,12c-0.1,0-0.1,0-0.2,0c-2.8,0-5-2.2-5-5s2.2-5,5-5c2.1,0,4,1.3,4.7,3.3C11.8,5.7,12.2,6,12.7,6h0.5
		l2-2H13.3z"/>
	<circle class="st0" cx="5" cy="7" r="1"/>
	<line class="st1" x1="21" y1="1" x2="7" y2="15"/>
</g>
</svg>
