<?xml version="1.0" encoding="UTF-8" standalone="no"?>
<!-- Generator: Adobe Illustrator 22.1.0, SVG Export Plug-In . SVG Version: 6.00 Build 0)  -->

<svg
   xmlns:dc="http://purl.org/dc/elements/1.1/"
   xmlns:cc="http://creativecommons.org/ns#"
   xmlns:rdf="http://www.w3.org/1999/02/22-rdf-syntax-ns#"
   xmlns:svg="http://www.w3.org/2000/svg"
   xmlns="http://www.w3.org/2000/svg"
   xmlns:sodipodi="http://sodipodi.sourceforge.net/DTD/sodipodi-0.dtd"
   xmlns:inkscape="http://www.inkscape.org/namespaces/inkscape"
   version="1.0"
   id="Layer_1"
   x="0px"
   y="0px"
   viewBox="0 0 25 16"
   style="enable-background:new 0 0 25 16;"
   xml:space="preserve"
   inkscape:version="0.91 r13725"
   sodipodi:docname="no_key.svg"><metadata
     id="metadata17"><rdf:RDF><cc:Work
         rdf:about=""><dc:format>image/svg+xml</dc:format><dc:type
           rdf:resource="http://purl.org/dc/dcmitype/StillImage" /></cc:Work></rdf:RDF></metadata><defs
     id="defs15" /><sodipodi:namedview
     pagecolor="#ffffff"
     bordercolor="#666666"
     borderopacity="1"
     objecttolerance="10"
     gridtolerance="10"
     guidetolerance="10"
     inkscape:pageopacity="0"
     inkscape:pageshadow="2"
     inkscape:window-width="1757"
     inkscape:window-height="685"
     id="namedview13"
     showgrid="false"
     inkscape:zoom="14.75"
     inkscape:cx="12.5"
     inkscape:cy="7.0200569"
     inkscape:window-x="0"
     inkscape:window-y="0"
     inkscape:window-maximized="0"
     inkscape:current-layer="Layer_1" /><style
     type="text/css"
     id="style3">
	.st0{fill:#2EA7DF;}
	.st1{fill:none;stroke:#2EA7DF;stroke-width:2;stroke-linecap:round;stroke-miterlimit:10;}
</style><g
     id="g5"><g
       id="g3370"><path
         id="path7"
         d="M24.1,4.9C23.6,4.3,22.8,4,22,4h-1.2l-2,2H22c0.3,0,0.5,0.1,0.7,0.3C22.9,6.5,23,6.7,23,7c0,0.5-0.5,1-1,1   h-5.2l-2,2H22c1.7,0,3-1.3,3-3C25,6.2,24.7,5.4,24.1,4.9z M13.3,4C12.2,1.6,9.7,0,7,0C3.1,0,0,3.1,0,7c0,3.3,2.3,6.1,5.4,6.8   c0.1-0.1,0.1-0.2,0.2-0.2L7.2,12c-0.1,0-0.1,0-0.2,0c-2.8,0-5-2.2-5-5s2.2-5,5-5c2.1,0,4,1.3,4.7,3.3C11.8,5.7,12.2,6,12.7,6h0.5   l2-2H13.3z"
         class="st0" /><circle
         id="circle9"
         r="1"
         cy="7"
         cx="5"
         class="st0" /><path
         style="color:#000000;font-style:normal;font-variant:normal;font-weight:normal;font-stretch:normal;font-size:medium;line-height:normal;font-family:sans-serif;text-indent:0;text-align:start;text-decoration:none;text-decoration-line:none;text-decoration-style:solid;text-decoration-color:#000000;letter-spacing:normal;word-spacing:normal;text-transform:none;direction:ltr;block-progression:tb;writing-mode:lr-tb;baseline-shift:baseline;text-anchor:start;white-space:normal;clip-rule:nonzero;display:inline;overflow:visible;visibility:visible;opacity:1;isolation:auto;mix-blend-mode:normal;color-interpolation:sRGB;color-interpolation-filters:linearRGB;solid-color:#000000;solid-opacity:1;fill:#2ea7df;fill-opacity:1;fill-rule:nonzero;stroke:none;stroke-width:2;stroke-linecap:round;stroke-linejoin:miter;stroke-miterlimit:10;stroke-dasharray:none;stroke-dashoffset:0;stroke-opacity:1;color-rendering:auto;image-rendering:auto;shape-rendering:auto;text-rendering:auto;enable-background:accumulate"
         d="m 20.980469,-0.00976563 a 1.0001,1.0001 0 0 0 -0.6875,0.30273438 L 6.2929688,14.292969 a 1.0001,1.0001 0 1 0 1.4140624,1.414062 L 21.707031,1.7070312 a 1.0001,1.0001 0 0 0 -0.726562,-1.71679683 z"
         id="line11"
         inkscape:connector-curvature="0" /></g></g></svg>