<?xml version="1.0" encoding="utf-8"?>
<!-- Generator: Adobe Illustrator 22.1.0, SVG Export Plug-In . SVG Version: 6.00 Build 0)  -->
<svg version="1.0" id="Layer_1" xmlns="http://www.w3.org/2000/svg" xmlns:xlink="http://www.w3.org/1999/xlink" x="0px" y="0px"
	 viewBox="0 0 12 15" style="enable-background:new 0 0 12 15;" xml:space="preserve">
<style type="text/css">
	.st0{fill:#DDDDDD;}
</style>
<g>
	<path class="st0" d="M4.7,1.6c-0.5-1.1-0.6-2-2.3-1.5C1.7,0.4,1.3,0.9,0.9,1.4C-0.6,3.1-0.2,6.7,2,10.2c2.3,3.5,5.4,5.4,7.6,4.6
		c0.7-0.2,1.3-0.3,1.8-0.9c1.2-1.4,0.4-1.8-0.4-2.7c-0.7-0.8-1.3-1.7-2.5-0.9c-0.2,0.2-1.2,1.3-1.8,1.2C6,11.1,4.9,10,4.1,8.8
		C3.4,7.7,2.8,6.2,2.8,5.4c0.1-0.5,1.5-1,1.8-1.1C5.7,3.4,5.2,2.6,4.7,1.6z"/>
</g>
</svg>
