<?xml version="1.0" encoding="utf-8"?>
<!-- Generator: Adobe Illustrator 22.1.0, SVG Export Plug-In . SVG Version: 6.00 Build 0)  -->
<svg version="1.0" id="Layer_1" xmlns="http://www.w3.org/2000/svg" xmlns:xlink="http://www.w3.org/1999/xlink" x="0px" y="0px"
	 viewBox="0 0 54 56" style="enable-background:new 0 0 54 56;" xml:space="preserve">
<style type="text/css">
	.st0{fill:none;stroke:#2EA7DF;stroke-width:2;stroke-miterlimit:10;}
	.st1{fill:none;stroke:#2EA7DF;stroke-width:2;stroke-linejoin:round;stroke-miterlimit:10;}
</style>
<g>
	<line class="st0" x1="14" y1="14" x2="17" y2="15"/>
	<path class="st0" d="M21,20c2,0,2,0,3-1s2-4,0-5c-1.8-0.9-5-1-6,0s-1,4,0,5S21,20,21,20z"/>
	<path class="st0" d="M42,37.1c6.4,2.4,11,8.6,11,15.9v2H27H1v-2c0-7.3,4.6-13.5,11-15.9"/>
	<path class="st0" d="M34.4,30H35c0,0,10-1,7,7s-15,8-15,8s-12,0-15-8s7-7,7-7h0.6"/>
	<path class="st0" d="M35,29.4V30c0,11-8,11-8,11s-8,0-8-11v-0.6"/>
	<path class="st1" d="M29,1c0,0,1,0,3,0c4,0,3,3,3,3s5,0,5,4s0,6,0,6s5,1-1,7c-1,1-1,1-1,1c0,10-11,11-11,11s-11-1-11-11
		c0,0,0,0-1-1c-6-6-1-7-1-7s0-2,0-6s5-4,5-4s1-3,5-3C26,1,29,1,29,1z"/>
	<line class="st0" x1="40" y1="14" x2="37" y2="15"/>
	<path class="st0" d="M33,20c-2,0-2,0-3-1s-2-4,0-5c1.8-0.9,5-1,6,0s1,4,0,5S33,20,33,20z"/>
	<line class="st0" x1="26" y1="16" x2="28" y2="16"/>
</g>
</svg>
