<?xml version="1.0" encoding="UTF-8" standalone="no"?>
<!-- Generator: Adobe Illustrator 22.1.0, SVG Export Plug-In . SVG Version: 6.00 Build 0)  -->

<svg
   xmlns:dc="http://purl.org/dc/elements/1.1/"
   xmlns:cc="http://creativecommons.org/ns#"
   xmlns:rdf="http://www.w3.org/1999/02/22-rdf-syntax-ns#"
   xmlns:svg="http://www.w3.org/2000/svg"
   xmlns="http://www.w3.org/2000/svg"
   xmlns:sodipodi="http://sodipodi.sourceforge.net/DTD/sodipodi-0.dtd"
   xmlns:inkscape="http://www.inkscape.org/namespaces/inkscape"
   version="1.0"
   id="Layer_1"
   x="0px"
   y="0px"
   viewBox="0 0 54 56"
   xml:space="preserve"
   inkscape:version="0.91 r13725"
   sodipodi:docname="pro.svg"
   width="54"
   height="56"><metadata
     id="metadata29"><rdf:RDF><cc:Work
         rdf:about=""><dc:format>image/svg+xml</dc:format><dc:type
           rdf:resource="http://purl.org/dc/dcmitype/StillImage" /><dc:title /></cc:Work></rdf:RDF></metadata><defs
     id="defs27" /><sodipodi:namedview
     pagecolor="#ffffff"
     bordercolor="#666666"
     borderopacity="1"
     objecttolerance="10"
     gridtolerance="10"
     guidetolerance="10"
     inkscape:pageopacity="0"
     inkscape:pageshadow="2"
     inkscape:window-width="2034"
     inkscape:window-height="845"
     id="namedview25"
     showgrid="false"
     fit-margin-top="0"
     fit-margin-left="0"
     fit-margin-right="0"
     fit-margin-bottom="0"
     inkscape:zoom="4.2142857"
     inkscape:cx="-9.3050848"
     inkscape:cy="28"
     inkscape:window-x="0"
     inkscape:window-y="0"
     inkscape:window-maximized="0"
     inkscape:current-layer="Layer_1" /><style
     type="text/css"
     id="style3">
	.st0{fill:none;stroke:#2EA7DF;stroke-width:2;stroke-miterlimit:10;}
	.st1{fill:none;stroke:#2EA7DF;stroke-width:2;stroke-linejoin:round;stroke-miterlimit:10;}
</style><path
     id="line23"
     style="color:#000000;font-style:normal;font-variant:normal;font-weight:normal;font-stretch:normal;font-size:medium;line-height:normal;font-family:sans-serif;text-indent:0;text-align:start;text-decoration:none;text-decoration-line:none;text-decoration-style:solid;text-decoration-color:#000000;letter-spacing:normal;word-spacing:normal;text-transform:none;direction:ltr;block-progression:tb;writing-mode:lr-tb;baseline-shift:baseline;text-anchor:start;white-space:normal;clip-rule:nonzero;display:inline;overflow:visible;visibility:visible;opacity:1;isolation:auto;mix-blend-mode:normal;color-interpolation:sRGB;color-interpolation-filters:linearRGB;solid-color:#000000;solid-opacity:1;fill:#2ea7df;fill-opacity:1;fill-rule:nonzero;stroke:none;stroke-width:2;stroke-linecap:butt;stroke-linejoin:miter;stroke-miterlimit:10;stroke-dasharray:none;stroke-dashoffset:0;stroke-opacity:1;color-rendering:auto;image-rendering:auto;shape-rendering:auto;text-rendering:auto;enable-background:accumulate"
     d="M 24,0 C 21.75,0 20.200104,0.88583391 19.292969,1.7929688 18.658453,2.4274844 18.579486,2.768634 18.423828,3.1152344 18.015639,3.1305295 17.298627,3.1043774 16.128906,3.5722656 15.397185,3.8649542 14.622353,4.3164578 14.013672,5.046875 13.404991,5.7772922 13,6.7916667 13,8 l 0,5.289062 c -0.550672,0.230541 -1.205898,0.636405 -1.644531,1.513672 -0.384164,0.768329 -0.422543,1.813761 0.0293,2.94336 0.451839,1.129598 1.349277,2.402012 2.908203,3.960937 l 0.777343,0.777344 c 0.106017,2.744249 1.008282,4.868471 2.289063,6.498047 -0.947975,0.03742 -2.147023,0.161495 -3.316406,0.574219 -1.211444,0.427568 -2.441969,1.19253 -3.109375,2.527343 -0.580223,1.160446 -0.551879,2.706896 -0.03125,4.498047 C 4.5412488,39.328162 0,45.587643 0,53 l 0,3 27,0 27,0 0,-3 C 54,45.587643 49.458751,39.328162 43.097656,36.582031 43.618285,34.79088 43.646629,33.24443 43.066406,32.083984 42.399,30.749171 41.168475,29.984209 39.957031,29.556641 38.787648,29.143917 37.5886,29.019838 36.640625,28.982422 c 1.280781,-1.629576 2.183046,-3.753798 2.289063,-6.498047 l 0.777343,-0.777344 c 1.558926,-1.558925 2.456364,-2.831339 2.908203,-3.960937 0.45184,-1.129599 0.413461,-2.175031 0.0293,-2.94336 C 42.205898,13.925467 41.550672,13.519603 41,13.289062 L 41,8 C 41,6.7916667 40.595009,5.7772922 39.986328,5.046875 39.377647,4.3164578 38.602815,3.8649542 37.871094,3.5722656 36.941291,3.2003447 36.585004,3.2543593 36.046875,3.2089844 36.049611,2.8860205 36.078756,2.5722058 35.949219,2.1835938 35.760973,1.6188571 35.340435,1.0136359 34.669922,0.61132812 33.999409,0.2090203 33.125,0 32,0 l -3,0 -5,0 z m 0,2 5,0 3,0 c 0.875,0 1.375591,0.1659797 1.642578,0.3261719 0.266987,0.1601922 0.346449,0.304971 0.408203,0.4902343 0.123509,0.3705267 0,0.8671876 0,0.8671876 L 33.613281,5 35,5 c 0,0 1.092349,0.013111 2.128906,0.4277344 0.518279,0.2073114 0.993447,0.5058078 1.322266,0.9003906 C 38.779991,6.7227078 39,7.2083333 39,8 l 0,5.279297 -1.935547,0.644531 c -0.125858,-0.207808 -0.176264,-0.449702 -0.357422,-0.630859 -0.888908,-0.888909 -2.130942,-1.019849 -3.417969,-1.00586 -1.287026,0.01399 -2.637566,0.268979 -3.736328,0.81836 -0.708699,0.35435 -1.217145,0.951348 -1.46875,1.591797 -0.105026,0.26734 -0.04825,0.533773 -0.08398,0.804687 L 28,15 l -2,0 0,0.501953 c -0.03574,-0.270914 0.02104,-0.537347 -0.08398,-0.804687 -0.251605,-0.640449 -0.760051,-1.237447 -1.46875,-1.591797 -1.098762,-0.549381 -2.449302,-0.80437 -3.736328,-0.81836 -1.287027,-0.01399 -2.529061,0.116951 -3.417969,1.00586 -0.181158,0.181157 -0.231564,0.423051 -0.357422,0.630859 L 15,13.279297 15,8 C 15,7.2083333 15.220009,6.7227078 15.548828,6.328125 15.877647,5.9335422 16.352815,5.6350458 16.871094,5.4277344 17.907651,5.0131115 19,5 19,5 l 0.720703,0 0.228516,-0.6835938 c 0,0 0.164947,-0.5165098 0.757812,-1.109375 C 21.299896,2.6141661 22.25,2 24,2 Z m -3.310547,12.287109 c 1.012973,0.01101 2.162043,0.256803 2.863281,0.607422 0.291301,0.14565 0.407855,0.298652 0.5,0.533203 0.09215,0.234552 0.127313,0.569393 0.08008,0.947266 -0.09447,0.755747 -0.575546,1.653671 -0.839843,1.917969 -0.5,0.5 -0.612357,0.59214 -0.734375,0.632812 C 22.436576,18.966454 22,19 21,19 21,19 20.59474,18.999417 20.070312,18.894531 19.545885,18.789646 18.971329,18.557266 18.707031,18.292969 18.560585,18.146522 18.25,17.333333 18.25,16.5 c 0,-0.833333 0.310585,-1.646522 0.457031,-1.792969 0.111092,-0.111091 0.969449,-0.430932 1.982422,-0.419922 z m 12.621094,0 c 1.012973,-0.01101 1.87133,0.308831 1.982422,0.419922 C 35.439415,14.853478 35.75,15.666667 35.75,16.5 c 0,0.833333 -0.310585,1.646522 -0.457031,1.792969 -0.264298,0.264297 -0.838854,0.496677 -1.363281,0.601562 C 33.40526,18.999417 33,19 33,19 c -1,0 -1.436576,-0.03355 -1.558594,-0.07422 -0.122018,-0.04067 -0.234375,-0.132812 -0.734375,-0.632812 -0.264297,-0.264298 -0.745375,-1.162222 -0.839843,-1.917969 -0.04723,-0.377873 -0.01207,-0.712714 0.08008,-0.947266 0.09215,-0.234551 0.208699,-0.387553 0.5,-0.533203 0.701238,-0.350619 1.850308,-0.596411 2.863281,-0.607422 z m -19.251953,0.78711 2.269531,0.755859 C 16.310273,16.056104 16.25,16.272898 16.25,16.5 c 0,1.166667 0.189415,2.353478 1.042969,3.207031 0.735702,0.735703 1.661146,1.003323 2.386719,1.148438 C 20.40526,21.000583 21,21 21,21 c 1,0 1.563424,0.03355 2.191406,-0.175781 0.627982,-0.209328 1.015625,-0.617188 1.515625,-1.117188 C 25.363038,19.051025 25.804366,18.079835 26.011719,17 l 1.976562,0 c 0.207353,1.079835 0.648681,2.051025 1.304688,2.707031 0.5,0.5 0.887643,0.90786 1.515625,1.117188 C 31.436576,21.033546 32,21 33,21 c 0,0 0.59474,5.83e-4 1.320312,-0.144531 0.725573,-0.145115 1.651017,-0.412735 2.386719,-1.148438 C 37.560585,18.853478 37.75,17.666667 37.75,16.5 c 0,-0.227102 -0.06027,-0.443896 -0.07813,-0.669922 l 2.269531,-0.755859 c 0.165081,0.05678 0.712584,0.220089 0.914063,0.623047 0.115836,0.231671 0.202457,0.561239 -0.0957,1.30664 -0.298161,0.745402 -1.025723,1.847988 -2.466797,3.289063 L 37,21.585938 37,22 c 0,4.633333 -2.433544,6.984881 -4.978516,8.373047 C 29.547766,31.722348 27.137728,31.974324 27,31.988281 26.862272,31.974324 24.452234,31.722348 21.978516,30.373047 19.433544,28.984881 17,26.633333 17,22 l 0,-0.414062 -1.292969,-1.292969 c -1.441074,-1.441075 -2.168636,-2.543661 -2.466797,-3.289063 -0.29816,-0.745401 -0.211539,-1.074969 -0.0957,-1.30664 0.201479,-0.402958 0.748982,-0.566269 0.914063,-0.623047 z m 3.43164,15.902343 c 0.351985,-0.01347 0.366427,0.0018 0.605469,0.0078 0.253204,5.067512 2.226108,8.012993 4.337891,9.464844 C 24.690059,42.000539 27,42 27,42 c 0,0 2.309941,5.39e-4 4.566406,-1.550781 2.111783,-1.451851 4.084687,-4.397332 4.337891,-9.464844 0.795777,-0.01987 2.082867,-0.0019 3.388672,0.458984 0.913556,0.322432 1.620531,0.80747 1.984375,1.535157 0.363843,0.727686 0.475382,1.834527 -0.212891,3.669922 -1.346083,3.589554 -4.752418,5.438433 -7.972656,6.392578 C 29.871559,43.99516 27,44 27,44 c 0,0 -2.871559,-0.0048 -6.091797,-0.958984 -3.220238,-0.954145 -6.626573,-2.803024 -7.972656,-6.392578 -0.688273,-1.835395 -0.576734,-2.942236 -0.212891,-3.669922 0.363844,-0.727687 1.070819,-1.212725 1.984375,-1.535157 0.913556,-0.322431 1.963423,-0.435416 2.783203,-0.466797 z m 2.648438,0.541016 c 0.297274,0.194728 0.584535,0.446678 0.882812,0.609375 2.955029,1.611834 5.888672,1.869141 5.888672,1.869141 l 0.08984,0.0078 0.08984,-0.0078 c 0,0 2.933643,-0.257307 5.888672,-1.869141 0.298277,-0.162697 0.585538,-0.414647 0.882812,-0.609375 -0.338475,4.120247 -1.877403,6.21735 -3.427734,7.283203 C 28.690059,39.999461 27,40 27,40 c 0,0 -1.690059,-5.39e-4 -3.433594,-1.199219 -1.550331,-1.065853 -3.089259,-3.162956 -3.427734,-7.283203 z m -8.46875,6.900391 c 1.885942,3.637525 5.466226,5.591193 8.671875,6.541015 C 23.871559,46.00484 27,46 27,46 c 0,0 3.128441,0.0048 6.658203,-1.041016 3.205649,-0.949822 6.785933,-2.90349 8.671875,-6.541015 C 47.964039,40.858698 52,46.402174 52,53 l 0,1 -25,0 -25,0 0,-1 C 2,46.402174 6.0359613,40.858698 11.669922,38.417969 Z" /></svg>