<?xml version="1.0" encoding="utf-8"?>
<!-- Generator: Adobe Illustrator 22.1.0, SVG Export Plug-In . SVG Version: 6.00 Build 0)  -->
<svg version="1.0" id="Layer_1" xmlns="http://www.w3.org/2000/svg" xmlns:xlink="http://www.w3.org/1999/xlink" x="0px" y="0px"
	 viewBox="0 0 48 55" style="enable-background:new 0 0 48 55;" xml:space="preserve">
<style type="text/css">
	.st0{fill:none;stroke:#2EA7DF;stroke-width:2;stroke-miterlimit:10;}
	.st1{fill:none;stroke:#2EA7DF;stroke-width:2;stroke-linecap:round;stroke-miterlimit:10;}
	.st2{fill:none;stroke:#2EA7DF;stroke-width:2;stroke-linecap:round;stroke-linejoin:round;stroke-miterlimit:10;}
	.st3{fill:#2EA7DF;}
</style>
<g>
	<path class="st0" d="M8,17V4c0-1.7,1.3-3,3-3h26c1.7,0,3,1.3,3,3v9"/>
	<path class="st0" d="M40,41v10c0,1.7-1.3,3-3,3H11c-1.7,0-3-1.3-3-3V36"/>
	<line class="st0" x1="8" y1="45" x2="40" y2="45"/>
	<line class="st0" x1="8" y1="9" x2="40" y2="9"/>
	<circle class="st0" cx="24" cy="49" r="1"/>
	<line class="st1" x1="21" y1="5" x2="27" y2="5"/>
	<path class="st2" d="M12.6,25H22c0.5,0,1,0.2,1.4,0.6C23.8,26,24,26.5,24,27c0,1.1-0.9,2-2,2h-9.4c-0.8,2.3-3,4-5.6,4
		c-3.3,0-6-2.7-6-6s2.7-6,6-6C9.6,21,11.8,22.7,12.6,25z"/>
	<circle class="st3" cx="5" cy="27" r="1"/>
	<path class="st0" d="M45,26H35c-1.1,0-2,0.9-2,2v8c0,1.1,0.9,2,2,2h10c1.1,0,2-0.9,2-2v-8C47,26.9,46.1,26,45,26z"/>
	<path class="st1" d="M45,21c0-2.8-2.2-5-5-5s-5,2.2-5,5v5"/>
	<line class="st1" x1="40" y1="31" x2="40" y2="34"/>
</g>
</svg>
