<?xml version="1.0" encoding="utf-8"?>
<!-- Generator: Adobe Illustrator 22.1.0, SVG Export Plug-In . SVG Version: 6.00 Build 0)  -->
<svg version="1.0" id="Layer_1" xmlns="http://www.w3.org/2000/svg" xmlns:xlink="http://www.w3.org/1999/xlink" x="0px" y="0px"
	 viewBox="0 0 54 60.2" style="enable-background:new 0 0 54 60.2;" xml:space="preserve">
<style type="text/css">
	.st0{fill:#2EA7DF;}
</style>
<path class="st0" d="M0,42.1C0,45.4,2.6,48,5.8,48c1.7,0,3.2-0.7,4.3-1.9l11.3,6.5c-0.2,0.6-0.3,1.2-0.3,1.7c0,3.2,2.6,5.8,5.8,5.8
	s5.8-2.6,5.8-5.8c0-0.6-0.1-1.2-0.3-1.7l11.3-6.5c1.1,1.2,2.6,1.9,4.3,1.9c3.2,0,5.8-2.6,5.8-5.8c0-2.8-2-5.2-4.6-5.7V23.7
	C52,23.1,54,20.8,54,18c0-3.2-2.6-5.8-5.8-5.8c-1.7,0-3.3,0.8-4.4,2L32.5,7.6c0.2-0.6,0.3-1.2,0.3-1.8C32.9,2.6,30.2,0,27,0
	s-5.8,2.6-5.8,5.8c0,0.6,0.1,1.2,0.3,1.8l-11.3,6.5c-1.1-1.2-2.6-2-4.4-2c-3.2,0-5.8,2.6-5.8,5.8c0,2.8,1.9,5.1,4.5,5.7v12.8
	C2,37,0,39.3,0,42.1z M10.4,21.7l4.7,2.7c-0.8,1.7-1.3,3.7-1.3,5.7c0,2,0.4,3.8,1.2,5.5l-4.7,2.6c-0.8-0.9-1.9-1.5-3.2-1.8V23.7
	C8.3,23.4,9.5,22.7,10.4,21.7z M47,23.7v12.7c-1.3,0.3-2.5,1-3.3,2l-4.4-2.6c0.8-1.8,1.3-3.7,1.3-5.8c0-2-0.4-3.9-1.2-5.6l4.5-2.5
	C44.7,22.8,45.8,23.4,47,23.7z M38.2,30c0,1.7-0.4,3.2-1,4.6L34,32.9c0.4-0.9,0.6-1.8,0.6-2.8c0-1-0.2-1.9-0.5-2.7l3.2-1.8
	C37.9,27,38.2,28.4,38.2,30z M27.2,25c2.8,0,5,2.2,5,5s-2.2,5-5,5s-5-2.2-5-5S24.4,25,27.2,25z M25.8,37.3V41
	c-3.1-0.4-5.8-2-7.6-4.5l3.2-1.8C22.5,36.1,24.1,37,25.8,37.3z M28.2,37.3c1.8-0.3,3.4-1.2,4.5-2.4l3.2,1.8c-1.8,2.4-4.5,4-7.7,4.3
	V37.3z M32.9,25.3c-1.2-1.3-2.8-2.3-4.6-2.6v-3.7c3.2,0.3,6,2,7.8,4.5L32.9,25.3z M25.8,22.7c-1.7,0.3-3.3,1.2-4.4,2.5l-3.1-1.8
	c1.7-2.4,4.4-4,7.5-4.4V22.7z M20.3,27.4c-0.3,0.8-0.5,1.7-0.5,2.7c0,0.9,0.2,1.7,0.4,2.6L17,34.4c-0.6-1.3-0.9-2.8-0.9-4.3
	c0-1.6,0.4-3.1,1-4.5L20.3,27.4z M5.9,45.5c-1.9,0-3.5-1.5-3.5-3.5s1.5-3.5,3.5-3.5s3.5,1.5,3.5,3.5S7.8,45.5,5.9,45.5z M11.4,44
	c0.2-0.6,0.3-1.2,0.3-1.9c0-0.6-0.1-1.3-0.3-1.9l4.7-2.6c2.2,3.2,5.7,5.4,9.7,5.8v5.3c-1.3,0.3-2.4,1-3.2,1.9L11.4,44z M27,57.8
	c-1.9,0-3.5-1.5-3.5-3.5s1.5-3.5,3.5-3.5s3.5,1.5,3.5,3.5S29,57.8,27,57.8z M31.5,50.5c-0.8-1-1.9-1.6-3.2-1.9v-5.2
	c4-0.3,7.6-2.4,9.8-5.5l4.5,2.6c-0.1,0.5-0.2,1-0.2,1.6c0,0.6,0.1,1.3,0.3,1.9L31.5,50.5z M51.6,42.1c0,1.9-1.5,3.5-3.5,3.5
	s-3.5-1.5-3.5-3.5s1.5-3.5,3.5-3.5S51.6,40.2,51.6,42.1z M48.2,14.5c1.9,0,3.5,1.5,3.5,3.5s-1.5,3.5-3.5,3.5s-3.5-1.5-3.5-3.5
	S46.3,14.5,48.2,14.5z M42.7,16.1c-0.2,0.6-0.3,1.2-0.3,1.8s0.1,1.3,0.3,1.9l-4.5,2.5c-2.2-3.2-5.8-5.4-9.9-5.7v-5.1
	c1.2-0.3,2.3-0.9,3.1-1.9L42.7,16.1z M27,2.3c1.9,0,3.5,1.5,3.5,3.5S29,9.2,27,9.2s-3.5-1.5-3.5-3.5S25.1,2.3,27,2.3z M22.7,9.6
	c0.8,0.9,1.9,1.6,3.1,1.9v5.3c-4,0.4-7.4,2.5-9.6,5.6l-4.7-2.8c0.1-0.5,0.2-1,0.2-1.6c0-0.6-0.1-1.2-0.3-1.8L22.7,9.6z M2.4,17.9
	c0-1.9,1.5-3.5,3.5-3.5s3.5,1.5,3.5,3.5s-1.5,3.5-3.5,3.5S2.4,19.9,2.4,17.9z"/>
</svg>
