<?xml version="1.0" encoding="utf-8"?>
<!-- Generator: Adobe Illustrator 22.1.0, SVG Export Plug-In . SVG Version: 6.00 Build 0)  -->
<svg version="1.0" id="Layer_1" xmlns="http://www.w3.org/2000/svg" xmlns:xlink="http://www.w3.org/1999/xlink" x="0px" y="0px"
	 viewBox="0 0 14 14.2" style="enable-background:new 0 0 14 14.2;" xml:space="preserve">
<style type="text/css">
	.st0{fill:#2CA4DF;}
</style>
<path class="st0" d="M14,0.8c0,0.5-0.1,1-0.3,1.4c-0.8,2.4-1.6,4.8-2.5,7.3c-0.3,1-0.7,2-1.1,3c-0.1,0.4-0.3,0.7-0.5,1.1
	c-0.1,0.1-0.2,0.3-0.3,0.4c-0.3,0.3-0.6,0.3-1,0.1c-0.4-0.3-0.7-0.6-0.9-1.1c-0.5-1-1-2-1.5-3.1C6,9.8,6,9.6,5.9,9.5
	c-0.3-0.5-0.7-1-1.2-1.2c-1.1-0.5-2.1-1-3.2-1.5C1.1,6.6,0.6,6.3,0.3,6c-0.5-0.5-0.4-1.1,0.1-1.5C0.7,4.3,1,4.2,1.3,4.1
	c1.3-0.5,2.7-0.9,4-1.4c1.3-0.5,2.7-1,4-1.4c1.1-0.4,2.1-0.7,3.2-1.1C12.7,0,13,0,13.3,0C13.7,0,14,0.2,14,0.7C14,0.8,14,0.8,14,0.8
	z"/>
</svg>
