<?xml version="1.0" encoding="utf-8"?>
<!-- Generator: Adobe Illustrator 22.1.0, SVG Export Plug-In . SVG Version: 6.00 Build 0)  -->
<svg version="1.0" id="Layer_1" xmlns="http://www.w3.org/2000/svg" xmlns:xlink="http://www.w3.org/1999/xlink" x="0px" y="0px"
	 viewBox="0 0 30 84" style="enable-background:new 0 0 30 84;" xml:space="preserve">
<style type="text/css">
	.st0{fill:#2EA7DF;}
</style>
<g>
	<path class="st0" d="M26,0H4C1.8,0,0,1.8,0,4v44c0,2.1,1.6,3.8,3.6,4l-0.2,1c-0.1,0.9-0.2,1.7-0.2,2.6v2.5c0,0.3,0.2,0.7,0.5,0.9
		l0.1,0c0.3,0.2,0.6,0.3,1,0.4c-1,1.8-1.6,3.9-1.6,6v1.8c0,1.8,0.7,3.5,1.9,4.8l2.6,2.7c0.3,0.3,0.6,0.8,0.8,1.1l4.2,7.6
		c0.2,0.3,0.5,0.5,0.9,0.5c0.2,0,0.4,0,0.5-0.1c0.5-0.3,0.7-0.9,0.4-1.4l-4.2-7.6c-0.3-0.6-0.7-1.1-1.2-1.6l-2.6-2.7
		c-0.8-0.9-1.3-2.1-1.3-3.4v-1.8c0-2.1,0.7-4.3,2-6l0.9-1.1c1.4-1.8,2.2-4,2.3-6.3h0v-2h0v-5.5c0.1-0.6,0.4-1.2,0.9-1.5
		c0.3-0.2,0.6-0.3,1-0.3c0.3,0,0.7,0.1,0.9,0.3c0.5,0.3,0.8,0.8,0.9,1.3c0,0.1,0,0.3,0,0.3V50h0v2h0v0.3c0,1.5,0.3,3.1,0.8,4.5
		l1.2,3.2c0.2,0.5,0.8,0.8,1.3,0.6c0.5-0.2,0.8-0.8,0.6-1.3l-1.2-3.2c-0.5-1.3-0.7-2.5-0.7-3.8V52H26c0,0.1,0,0.3,0,0.4l-2.4,17.1
		c-0.2,1,0,2,0.5,2.8l2.7,5.2c0.2,0.3,0.6,0.5,0.9,0.5c0.2,0,0.3,0,0.4-0.1c0.5-0.3,0.7-0.9,0.4-1.4l-2.7-5.1
		c-0.3-0.5-0.4-1.1-0.3-1.7L28,52.7c0.1-0.4,0.1-0.8,0-1.2c1.2-0.7,2-2,2-3.5V4C30,1.8,28.2,0,26,0z M4,2h22c1.1,0,2,0.9,2,2v4H2V4
		C2,2.9,2.9,2,4,2z M13.9,41c-0.4-0.2-0.9-0.3-1.4-0.3c-0.5,0-1,0.1-1.4,0.3H2V10h26v31H13.9z M6.7,57l-0.3,0.3
		c-0.3,0.1-0.7,0.2-1.1,0.1v-1.9c0-0.8,0-1.5,0.1-2.3L5.7,52h2.9C8.5,53.9,7.8,55.6,6.7,57z M8.6,44.9V50H4c-1.1,0-2-0.9-2-2v-5h7
		C8.7,43.7,8.6,44.3,8.6,44.9z M25.9,50h-9.5v-5.3c0,0,0,0,0-0.1c0-0.7-0.1-1.1-0.4-1.6h12v5C28,49.1,27.1,50,25.9,50z"/>
	<path class="st0" d="M12,6h6c0.6,0,1-0.4,1-1s-0.4-1-1-1h-6c-0.6,0-1,0.4-1,1S11.4,6,12,6z"/>
	<path class="st0" d="M18,24.7v-8.6c0-1.6-1.2-3-2.7-3.1c-0.9-0.1-1.8,0.2-2.4,0.9C12.3,14.4,12,15.2,12,16v8.7
		c-2.4,1.1-4,3.6-4,6.3c0,2.1,0.9,4.1,2.6,5.4c1.3,1,2.8,1.6,4.4,1.6c0.5,0,1-0.1,1.5-0.2c2.7-0.6,4.8-2.7,5.4-5.4
		C22.5,29.2,20.9,26,18,24.7z M19.9,32.1c-0.4,1.9-1.9,3.4-3.8,3.8c-1.5,0.3-3.1-0.1-4.2-1c-1.2-1-1.9-2.4-1.9-3.9
		c0-2.1,1.3-4,3.3-4.7c0.4-0.1,0.7-0.5,0.7-0.9V16c0-0.3,0.1-0.5,0.3-0.7c0.2-0.2,0.4-0.3,0.7-0.3c0,0,0.1,0,0.1,0
		c0.5,0,0.9,0.5,0.9,1.1v9.2c0,0.4,0.3,0.8,0.7,0.9C19,27.1,20.4,29.5,19.9,32.1z"/>
	<circle class="st0" cx="15" cy="33" r="1"/>
</g>
</svg>
