<?xml version="1.0" encoding="utf-8"?>
<!-- Generator: Adobe Illustrator 22.1.0, SVG Export Plug-In . SVG Version: 6.00 Build 0)  -->
<svg version="1.0" id="Layer_1" xmlns="http://www.w3.org/2000/svg" xmlns:xlink="http://www.w3.org/1999/xlink" x="0px" y="0px"
	 viewBox="0 0 22 13" style="enable-background:new 0 0 22 13;" xml:space="preserve">
<style type="text/css">
	.st0{fill:#5181B7;}
</style>
<path class="st0" d="M21.4,13c-0.1,0-0.2,0-0.4,0c-0.8,0-1.5,0-2.3,0c-0.5,0-0.8-0.1-1.1-0.5c-0.3-0.3-0.7-0.7-1-1
	c-0.6-0.6-1.2-1.2-1.8-1.7c-0.3-0.2-0.6-0.4-0.9-0.5c-0.2-0.1-0.4-0.1-0.6-0.1c-0.3,0-0.4,0.2-0.4,0.4c0,0.1,0,0.3,0,0.4
	c0,0.7,0,1.4,0,2c0,0.1,0,0.2,0,0.3c0,0.2-0.2,0.4-0.4,0.5c-0.3,0.1-0.5,0.1-0.8,0.2c-1.6,0.1-3-0.3-4.3-1.1
	c-1.2-0.7-2.2-1.6-3.1-2.7c-0.8-1-1.5-2.1-2.1-3.1C1.5,4.9,0.9,3.7,0.4,2.4C0.2,1.9,0.1,1.4,0,0.9c0-0.1,0-0.2,0-0.4
	C0,0.3,0.2,0.1,0.5,0c0.1,0,0.2,0,0.4,0c0.8,0,1.5,0,2.3,0c0.1,0,0.3,0,0.4,0c0.2,0,0.4,0.2,0.5,0.4c0.1,0.2,0.2,0.5,0.3,0.7
	c0.6,1.6,1.3,3.1,2.2,4.5c0.3,0.5,0.6,0.9,1,1.3C7.7,7,7.8,7.1,7.9,7.2C8,7.2,8.1,7.3,8.2,7.3c0.2,0.1,0.4,0,0.5-0.3
	c0-0.2,0.1-0.4,0.1-0.5c0-1.2,0-2.4,0-3.6c0-0.7-0.2-1.2-0.6-1.8C8,1.1,7.9,1,7.9,0.9C7.6,0.5,7.9,0.1,8.3,0c0.1,0,0.1,0,0.2,0
	c1.2,0,2.4,0,3.6,0c0.1,0,0.2,0,0.3,0c0.2,0,0.3,0.2,0.4,0.3c0.1,0.2,0.1,0.4,0.1,0.6c0,0.8,0,1.5,0,2.3c0,0.8,0,1.6,0,2.4
	c0,0.1,0,0.3,0,0.4c0,0,0,0.1,0,0.1c0.1,0.2,0.2,0.3,0.4,0.2c0.2,0,0.3-0.1,0.4-0.2c0.4-0.3,0.7-0.7,1.1-1.1c0.7-1,1.4-2,1.9-3.1
	c0.2-0.4,0.4-0.8,0.5-1.1C17.5,0.3,17.8,0,18.3,0c0.8,0,1.7,0,2.5,0C21,0,21,0,21.1,0c0.3,0.1,0.5,0.3,0.4,0.6
	c-0.1,0.3-0.2,0.6-0.3,0.9c-0.3,0.7-0.7,1.4-1.1,2c-0.6,0.9-1.2,1.8-1.8,2.7c-0.1,0.1-0.1,0.2-0.2,0.3c-0.1,0.2-0.1,0.4,0,0.6
	c0.1,0.2,0.3,0.4,0.4,0.6c0.4,0.4,0.7,0.7,1.1,1.1c0.6,0.7,1.2,1.4,1.8,2.1c0.2,0.3,0.4,0.6,0.5,0.9c0,0.1,0.1,0.2,0.1,0.3
	C22,12.6,21.8,12.9,21.4,13z"/>
</svg>
