<?xml version="1.0" encoding="utf-8"?>
<!-- Generator: Adobe Illustrator 22.1.0, SVG Export Plug-In . SVG Version: 6.00 Build 0)  -->
<svg version="1.0" id="Layer_1" xmlns="http://www.w3.org/2000/svg" xmlns:xlink="http://www.w3.org/1999/xlink" x="0px" y="0px"
	 viewBox="0 0 46 59" style="enable-background:new 0 0 46 59;" xml:space="preserve">
<style type="text/css">
	.st0{fill:#2EA7DF;}
</style>
<g>
	<rect x="15" y="5" class="st0" width="2" height="2"/>
</g>
<g>
	<rect x="29" y="5" class="st0" width="2" height="2"/>
</g>
<g>
	<rect x="22" y="5" class="st0" width="2" height="2"/>
</g>
<g>
	<path class="st0" d="M23,48c-0.2,0-0.4-0.1-0.6-0.2l-11-8.5c-0.2-0.2-0.4-0.5-0.4-0.8V20.7c0-0.4,0.2-0.8,0.6-0.9l11-4.7
		c0.3-0.1,0.5-0.1,0.8,0l11,4.7c0.4,0.2,0.6,0.5,0.6,0.9v17.8c0,0.3-0.1,0.6-0.4,0.8l-11,8.5C23.4,47.9,23.2,48,23,48z M13,38
		l10,7.7L33,38V21.3l-10-4.3l-10,4.3V38z"/>
</g>
<g>
	<path class="st0" d="M22.6,31.5l-1.2-1.2L20,31.7l2,2c0.2,0.2,0.4,0.3,0.7,0.3c0,0,0,0,0.1,0c0.3,0,0.5-0.2,0.7-0.4l4-5l-1.6-1.2
		L22.6,31.5z"/>
</g>
<g>
	<path class="st0" d="M23,23c-4.4,0-8,3.6-8,8s3.6,8,8,8s8-3.6,8-8S27.4,23,23,23z M23,37c-3.3,0-6-2.7-6-6s2.7-6,6-6s6,2.7,6,6
		S26.3,37,23,37z"/>
</g>
<g>
	<path class="st0" d="M45.4,0.6C45,0.2,44.5,0,44,0H2C0.9,0,0,0.9,0,2v55c0,1.1,0.9,2,2,2h42c1.1,0,2-0.9,2-2v-9v-1V13l0-11
		C46,1.5,45.8,1,45.4,0.6z M12,2h22v7c0,0.6-0.4,1-1,1H13c-0.6,0-1-0.4-1-1V2z M13,12h20c1.7,0,3-1.3,3-3V8h4v5.3V13v34v1v3H6V8h4v1
		C10,10.7,11.3,12,13,12z M44,47v1v9H2V2h8v4H5C4.4,6,4,6.4,4,7v45c0,0.6,0.4,1,1,1h36c0.6,0,1-0.4,1-1v-4v-1V13v0.3V7
		c0-0.6-0.4-1-1-1h-5V2h8l0,11.3h0V47z"/>
</g>
</svg>
