<?xml version="1.0" encoding="utf-8"?>
<!-- Generator: Adobe Illustrator 22.1.0, SVG Export Plug-In . SVG Version: 6.00 Build 0)  -->
<svg version="1.0" id="Layer_1" xmlns="http://www.w3.org/2000/svg" xmlns:xlink="http://www.w3.org/1999/xlink" x="0px" y="0px"
	 viewBox="0 0 48 30" style="enable-background:new 0 0 48 30;" xml:space="preserve">
<style type="text/css">
	.st0{fill:#DDDDDD;}
</style>
<path class="st0" d="M43.7,15.3L43.7,15.3c0-0.7,0-1.4,0-2.1c0-0.9-0.1-1.7-0.4-2.5c-1-2.8-3.7-4.8-6.7-4.9c-0.9,0-1.7,0-2.6,0
	c-0.2,0-0.3,0-0.4-0.2c-3.6-4.5-9.6-6.5-15.2-5.2c-3.4,0.8-6.2,2.5-8.4,5.2C10,5.7,9.9,5.8,9.8,5.8c-0.6,0-1.2,0-1.7,0
	c-0.6,0-1.2,0-1.8,0.1C2.6,6.4,0,9.4,0,13.1c0,1.5,0,2.9,0,4.4c0,1.1,0.2,2.1,0.7,3.1c1.3,2.6,3.4,4,6.3,4.2c1.1,0.1,2.2,0,3.3,0
	c0.2,0,0.3,0.1,0.4,0.2c0.7,0.6,1.3,1.3,2.1,1.9c3.7,2.8,7.8,3.7,12.3,2.8c3.3-0.6,6-2.3,8.2-4.7c0.1-0.1,0.2-0.2,0.4-0.2
	c0.9,0,1.7,0,2.6,0c1.1,0,2.1-0.2,3.1-0.6c2.7-1.3,4.2-3.4,4.4-6.4C43.8,17,43.7,16.1,43.7,15.3z M15,12.1c-0.6,2.5-1.2,4.9-1.8,7.4
	c-0.1,0.2-0.1,0.3-0.4,0.3c-0.7,0-1.4,0-2.2,0c-0.4-1.9-0.7-3.8-1.1-5.6c-0.3,1.8-0.7,3.7-1.1,5.6H6c-0.8-3.2-1.5-6.3-2.3-9.5h2.8
	c0.3,1.8,0.6,3.7,0.8,5.4c0.3-1.7,0.7-3.5,1-5.4h0.9c0.5,0,0.9,0,1.4,0c0.1,0,0.2,0,0.2,0.2c0.3,1.7,0.6,3.4,0.9,5
	c0,0.1,0,0.2,0,0.3c0.3-1.9,0.6-3.7,0.8-5.5h2.7C15.3,10.9,15.1,11.5,15,12.1z M19.1,19.8h-2.4v-6.9h2.4V19.8z M18.6,12
	c-0.2,0.1-0.5,0.1-0.7,0.2c-0.4,0-0.7-0.1-1-0.3c-0.7-0.5-0.6-1.6,0.2-2c0.5-0.2,1-0.2,1.5,0c0.5,0.2,0.7,0.6,0.7,1.1
	C19.3,11.4,19,11.8,18.6,12z M42.3,17.4c0,2.9-2,5.3-4.9,5.9c-0.4,0.1-0.8,0.1-1.2,0.1c-5.4,0-10.8,0-16.2,0h-0.2
	c0.4-0.4,0.8-0.7,1.1-1.1c1.2-1.4,1.9-2.9,1.9-4.8c0-1.5,0-3,0-4.5c0-2.7,1.8-5,4.4-5.7c0.5-0.1,1.1-0.2,1.6-0.2c2.5,0,4.9,0,7.4,0
	c3,0,5.4,2,5.9,4.9c0.1,0.4,0.1,0.7,0.1,1.1C42.3,14.6,42.3,16,42.3,17.4z"/>
<g>
	<path class="st0" d="M47.6,7c-0.1,0.4-0.2,0.8-0.3,1.2c0,0.2-0.1,0.2-0.3,0.2c-0.1,0-0.2,0-0.2-0.2c-0.1-0.4-0.2-0.8-0.4-1.3
		c0,0.5,0,0.9,0,1.4c-0.1,0-0.2,0-0.4,0c0-0.7,0-1.3,0-2c0.2,0,0.3,0,0.5,0c0.1,0,0.1,0.1,0.1,0.2c0.1,0.4,0.2,0.7,0.4,1.1
		c0.1-0.3,0.2-0.6,0.2-1c0-0.3,0.2-0.3,0.4-0.3c0.1,0,0.2,0,0.3,0c0,0.7,0,1.3,0,2c-0.1,0-0.2,0-0.3,0C47.7,8,47.7,7.5,47.6,7
		C47.6,7,47.6,7,47.6,7z"/>
	<path class="st0" d="M45.2,8.5c-0.1,0-0.3,0-0.4,0c0-0.5,0-1.1,0-1.7c-0.2,0-0.4,0-0.6,0c0-0.1,0-0.2,0-0.3c0.5,0,1,0,1.6,0
		c0,0.1,0,0.2,0,0.3c-0.2,0-0.4,0-0.6,0C45.2,7.3,45.2,7.9,45.2,8.5z"/>
</g>
<path class="st0" d="M34,14.6c0,0.8,0,1.5,0,2.2c-1.7,0-3.4,0-5.1,0c0,1,0,1.9,0,2.9c-0.9,0-1.8,0-2.6,0c0-3.2,0-6.3,0-9.5
	c2.8,0,5.5,0,8.3,0c0,0.7,0,1.5,0,2.2c-1.9,0-3.7,0-5.6,0c0,0.7,0,1.4,0,2.1C30.6,14.6,32.3,14.6,34,14.6z"/>
<path class="st0" d="M38.6,19.8c-0.1,0-0.1,0-0.1,0c-0.8,0-1.5,0-2.3,0c0-2.3,0-4.6,0-6.9c0.8,0,1.6,0,2.4,0
	C38.6,15.2,38.6,17.5,38.6,19.8z"/>
<path class="st0" d="M37.4,12.1c-0.2,0-0.4-0.1-0.6-0.1c-0.5-0.2-0.9-0.6-0.9-1.1c0-0.5,0.3-0.9,0.8-1.1c0.4-0.1,0.9-0.1,1.3,0.1
	c0.4,0.2,0.7,0.6,0.7,1.1c0,0.5-0.3,0.9-0.8,1C37.8,12.1,37.6,12.1,37.4,12.1z"/>
</svg>
