<?xml version="1.0" encoding="UTF-8" standalone="no"?>
<svg
   xmlns:dc="http://purl.org/dc/elements/1.1/"
   xmlns:cc="http://creativecommons.org/ns#"
   xmlns:rdf="http://www.w3.org/1999/02/22-rdf-syntax-ns#"
   xmlns:svg="http://www.w3.org/2000/svg"
   xmlns="http://www.w3.org/2000/svg"
   viewBox="0 0 675.98248 480.35376"
   height="480.35376"
   width="675.98248"
   xml:space="preserve"
   version="1.1"
   id="svg2"><metadata
     id="metadata8"><rdf:RDF><cc:Work
         rdf:about=""><dc:format>image/svg+xml</dc:format><dc:type
           rdf:resource="http://purl.org/dc/dcmitype/StillImage" /><dc:title></dc:title></cc:Work></rdf:RDF></metadata><defs
     id="defs6"><clipPath
       id="clipPath16"
       clipPathUnits="userSpaceOnUse"><path
         id="path18"
         d="m 0,384.283 540.786,0 L 540.786,0 0,0 0,384.283 Z" /></clipPath></defs><g
     transform="matrix(1.25,0,0,-1.25,0,480.35375)"
     id="g10"><g
       id="g12"><g
         clip-path="url(#clipPath16)"
         id="g14"><g
           transform="translate(67.1973,232.7925)"
           id="g20"><path
             id="path22"
             style="fill:#41a9df;fill-opacity:1;fill-rule:nonzero;stroke:none"
             d="m 0,0 c 0,4.086 -1.456,7.361 -4.37,9.82 -2.913,2.463 -8.139,4.681 -15.675,6.658 -8.173,2.043 -14.276,4.638 -18.311,7.786 -4.037,3.147 -6.054,7.502 -6.054,13.061 0,5.695 2.27,10.273 6.807,13.741 4.539,3.468 10.492,5.2 17.86,5.2 7.668,0 13.797,-2.076 18.386,-6.229 4.589,-4.152 6.883,-9.381 6.883,-15.675 l -5.977,0 c 0,4.992 -1.708,9.036 -5.124,12.131 -3.416,3.101 -8.14,4.648 -14.168,4.648 -5.962,0 -10.568,-1.288 -13.816,-3.869 -3.249,-2.576 -4.872,-5.842 -4.872,-9.796 0,-3.751 1.488,-6.833 4.471,-9.244 2.979,-2.411 8.271,-4.572 15.876,-6.479 8.002,-2.043 14.024,-4.742 18.058,-8.088 4.037,-3.35 6.054,-7.87 6.054,-13.566 0,-5.96 -2.352,-10.631 -7.057,-14.014 -4.707,-3.384 -10.827,-5.078 -18.363,-5.078 -7.469,0 -13.898,1.817 -19.292,5.455 -5.391,3.633 -8.088,9.098 -8.088,16.402 l 5.979,0 c 0,-5.827 2.093,-10.084 6.28,-12.764 4.186,-2.675 9.225,-4.015 15.121,-4.015 5.894,0 10.601,1.255 14.116,3.765 C -1.758,-7.635 0,-4.256 0,0" /></g><g
           transform="translate(90.7603,269.2163)"
           id="g24"><path
             id="path26"
             style="fill:#41a9df;fill-opacity:1;fill-rule:nonzero;stroke:none"
             d="m 0,0 0.451,-9.546 0.151,-0.052 c 1.741,3.317 4.095,5.913 7.059,7.786 2.963,1.878 6.488,2.817 10.574,2.817 4.254,0 7.737,-0.972 10.45,-2.916 2.713,-1.944 4.622,-4.992 5.728,-9.145 l 0.149,0 c 1.675,3.652 4.053,6.573 7.135,8.767 3.081,2.195 6.783,3.294 11.103,3.294 5.726,0 10.105,-1.802 13.137,-5.403 3.032,-3.6 4.546,-9.286 4.546,-17.058 l 0,-32.903 -6.028,0 0,32.903 c 0,6.465 -1.106,10.952 -3.315,13.467 -2.21,2.511 -5.459,3.766 -9.746,3.766 -4.792,-0.066 -8.56,-1.718 -11.304,-4.945 -2.746,-3.233 -4.289,-6.876 -4.622,-10.929 l 0,-34.262 -6.028,0 0,33.46 c 0,6.125 -1.123,10.438 -3.367,12.934 -2.244,2.496 -5.492,3.742 -9.746,3.742 -4.287,0 -7.711,-1.189 -10.273,-3.568 -2.562,-2.378 -4.398,-5.421 -5.502,-9.14 l 0,-37.428 -6.078,0 L -5.526,0 0,0 Z" /></g><g
           transform="translate(191.3863,219.127)"
           id="g28"><path
             id="path30"
             style="fill:#41a9df;fill-opacity:1;fill-rule:nonzero;stroke:none"
             d="m 0,0 c 4.421,0 8.265,0.996 11.53,2.987 3.265,1.996 5.634,4.601 7.109,7.814 l 0,11.353 -12.108,0 c -5.561,0 -9.947,-1.146 -13.163,-3.44 -3.216,-2.293 -4.823,-5.2 -4.823,-8.715 0,-2.982 0.996,-5.394 2.99,-7.234 C -6.474,0.92 -3.652,0 0,0 m 19.743,-4.27 c -0.401,1.873 -0.687,3.449 -0.854,4.723 -0.168,1.269 -0.25,2.562 -0.25,3.869 L 18.488,4.37 C 16.511,1.557 13.882,-0.755 10.601,-2.562 7.316,-4.37 3.548,-5.276 -0.703,-5.276 c -5.394,0 -9.53,1.374 -12.41,4.12 -2.881,2.746 -4.32,6.531 -4.32,11.353 0,5.125 2.135,9.169 6.405,12.132 4.271,2.963 10.157,4.45 17.66,4.45 l 12.007,0 0,6.729 c 0,3.954 -1.232,7.016 -3.693,9.196 -2.463,2.176 -5.971,3.266 -10.525,3.266 -4.289,0 -7.788,-1.048 -10.501,-3.143 -2.711,-2.095 -4.068,-4.681 -4.068,-7.762 l -5.978,0.052 c 0,4.284 1.935,8.021 5.801,11.202 3.87,3.18 8.867,4.775 14.997,4.775 6.129,0 10.985,-1.5 14.569,-4.497 3.583,-3.001 5.376,-7.394 5.376,-13.189 l 0,-26.726 c 0,-1.944 0.1,-3.804 0.3,-5.578 0.201,-1.774 0.569,-3.567 1.107,-5.374 l -6.281,0 z" /></g><g
           transform="translate(257.045,264.0396)"
           id="g32"><path
             id="path34"
             style="fill:#41a9df;fill-opacity:1;fill-rule:nonzero;stroke:none"
             d="m 0,0 -4.471,0.302 c -3.85,0 -6.974,-1.048 -9.369,-3.143 -2.395,-2.09 -4.112,-5.03 -5.15,-8.814 l 0,-37.528 -6.029,0 0,54.359 5.276,0 0.753,-9.045 0,-0.25 0.151,-0.052 c 1.54,3.284 3.6,5.827 6.179,7.639 2.578,1.808 5.728,2.714 9.447,2.714 0.769,0 1.514,-0.062 2.234,-0.18 C -0.26,5.884 0.335,5.762 0.805,5.625 L 0,0 Z" /></g><g
           transform="translate(277.3418,283.1319)"
           id="g36"><path
             id="path38"
             style="fill:#41a9df;fill-opacity:1;fill-rule:nonzero;stroke:none"
             d="m 0,0 0,-13.915 11.405,0 0,-4.927 -11.405,0 0,-35.418 c 0,-3.615 0.596,-6.154 1.784,-7.612 1.19,-1.453 2.808,-2.184 4.851,-2.184 0.869,0 1.656,0.042 2.359,0.127 0.703,0.085 1.61,0.227 2.713,0.425 l 0.855,-4.521 c -0.907,-0.368 -1.978,-0.67 -3.213,-0.901 -1.242,-0.236 -2.496,-0.354 -3.771,-0.354 -3.752,0 -6.626,1.166 -8.616,3.492 -1.991,2.326 -2.987,6.172 -2.987,11.528 l 0,35.418 -8.945,0 0,4.927 8.945,0 L -6.025,0 0,0 Z" /></g><g
           transform="translate(43.7901,92.4864)"
           id="g40"><path
             id="path42"
             style="fill:#41a9df;fill-opacity:1;fill-rule:nonzero;stroke:none"
             d="m 0,0 35.013,0 -17.365,55.682 -0.283,0 L 0,0 Z m 41.619,-21.233 -48.225,0 -9.343,-30.012 -27.841,0 47.282,137.408 28.218,0 47.092,-137.408 -27.84,0 -9.343,30.012 z" /></g><path
           id="path44"
           style="fill:#41a9df;fill-opacity:1;fill-rule:nonzero;stroke:none"
           d="m 163.173,41.242 -27.557,0 0,102.112 27.557,0 0,-102.112 z m 0,126.555 -27.557,0 0,20.668 27.557,0 0,-20.668 z" /><g
           transform="translate(240.6543,119.0059)"
           id="g46"><path
             id="path48"
             style="fill:#41a9df;fill-opacity:1;fill-rule:nonzero;stroke:none"
             d="m 0,0 -11.231,0.283 c -4.152,0 -7.535,-0.803 -10.145,-2.406 -2.612,-1.606 -4.61,-3.917 -5.992,-6.938 l 0,-68.704 -27.463,0 0,102.114 25.575,0 1.227,-14.535 0.189,-0.093 c 2.39,5.22 5.426,9.279 9.107,12.174 3.68,2.892 8.069,4.34 13.165,4.34 1.51,0 3.02,-0.11 4.53,-0.329 1.51,-0.222 2.831,-0.489 3.964,-0.802 L 0,0 Z" /></g><g
           transform="translate(291.711,83.9932)"
           id="g50"><path
             id="path52"
             style="fill:#41a9df;fill-opacity:1;fill-rule:nonzero;stroke:none"
             d="m 0,0 -8.116,0 0,-42.751 -27.557,0 0,147.223 27.557,0 0,-83.521 7.455,0 23.122,38.409 31.804,0 -32.087,-46.431 35.673,-55.68 -31.616,0 L 0,0 Z" /></g><g
           transform="translate(396.5655,124.0078)"
           id="g54"><path
             id="path56"
             style="fill:#41a9df;fill-opacity:1;fill-rule:nonzero;stroke:none"
             d="m 0,0 c -5.225,0 -9.297,-1.936 -12.222,-5.805 -2.925,-3.868 -4.832,-9.171 -5.71,-15.901 l 34.447,0 0,2.454 c 0,5.976 -1.34,10.678 -4.01,14.108 C 9.828,-1.715 5.661,0 0,0 m 2.453,-84.654 c -15.039,0 -26.883,4.625 -35.531,13.873 -8.654,9.249 -12.978,21.296 -12.978,36.146 l 0,3.775 c 0,15.477 4.107,28.043 12.317,37.702 8.211,9.657 19.455,14.454 33.739,14.391 14.09,0 24.867,-4.09 32.322,-12.267 7.456,-8.18 11.184,-19.475 11.184,-33.881 l 0,-15.005 -61.721,0 c 0.817,-7.173 3.209,-12.899 7.172,-17.177 3.965,-4.279 9.439,-6.418 16.422,-6.418 6.228,0 11.306,0.598 15.241,1.793 3.931,1.195 8.319,3.116 13.165,5.758 l 6.04,-18.215 c -4.091,-3.084 -9.314,-5.6 -15.666,-7.55 -6.355,-1.949 -13.59,-2.925 -21.706,-2.925" /></g><g
           transform="translate(487.8242,84.0869)"
           id="g58"><path
             id="path60"
             style="fill:#41a9df;fill-opacity:1;fill-rule:nonzero;stroke:none"
             d="m 0,0 1.228,-6.229 0.283,0 19.723,65.497 29.634,0 -41.43,-117.402 c -2.582,-7.298 -6.371,-13.449 -11.373,-18.451 -5.002,-5.001 -12.598,-7.502 -22.791,-7.502 -2.326,0 -4.468,0.189 -6.417,0.566 -1.949,0.377 -4.375,0.914 -7.266,1.604 l 3.208,20.103 c 0.816,-0.125 1.698,-0.25 2.642,-0.377 0.945,-0.126 1.793,-0.19 2.548,-0.19 4.781,0 8.273,0.897 10.477,2.69 2.202,1.794 4.091,4.798 5.661,9.012 l 3.21,7.928 -36.24,102.019 29.633,0 L 0,0 Z" /></g><g
           transform="translate(317.8203,283.0498)"
           id="g62"><path
             id="path64"
             style="fill:#41a9df;fill-opacity:1;fill-rule:nonzero;stroke:none"
             d="M 0,0 -0.079,0.011 0,0 Z M 113.057,-7.554 C 83.791,21.492 43.768,39.683 -0.226,40.294 L 0,0 c 65.908,-0.959 119.913,-54.579 121.335,-120.497 l 40.442,0.011 c -0.95,43.995 -19.455,83.887 -48.72,112.932" /></g><g
           transform="translate(317.6055,344.3062)"
           id="g66"><path
             id="path68"
             style="fill:#41a9df;fill-opacity:1;fill-rule:nonzero;stroke:none"
             d="M 0,0 -0.396,0.011 0,0 Z M 156.001,-26.013 C 115.643,14.041 60.443,39.134 -0.228,39.977 L 0,0 c 99.114,-1.59 180.293,-82.273 182.433,-181.437 l 40.748,-0.316 c -1.311,60.67 -26.823,115.685 -67.18,155.74" /></g><g
           transform="translate(317.9336,224.2505)"
           id="g70"><path
             id="path72"
             style="fill:#41a9df;fill-opacity:1;fill-rule:nonzero;stroke:none"
             d="M 0,0 -0.045,0 0,0 Z M 70.317,8.709 C 52.096,26.792 27.164,38.124 -0.228,38.505 L 0,0 c 33.704,-0.493 61.31,-27.92 62.038,-61.63 l 38.607,0.034 c -0.591,27.39 -12.108,52.221 -30.328,70.305" /></g></g></g></g></svg>